<mxfile host="Electron" modified="2023-04-12T13:00:39.280Z" agent="Mozilla/5.0 (Macintosh; Intel Mac OS X 10_15_7) AppleWebKit/537.36 (KHTML, like Gecko) draw.io/21.1.2 Chrome/106.0.5249.199 Electron/21.4.3 Safari/537.36" etag="fJf-xJoYsM_wkbhZ8d_u" version="21.1.2" type="device">
  <diagram name="Page-1" id="vGHoFRUJNv5_JCZFDn6l">
    <mxGraphModel dx="1026" dy="694" grid="1" gridSize="10" guides="1" tooltips="1" connect="1" arrows="1" fold="1" page="1" pageScale="1" pageWidth="1169" pageHeight="827" math="0" shadow="0">
      <root>
        <mxCell id="0" />
        <mxCell id="1" parent="0" />
        <mxCell id="piUxXuk_W2rWxrnq_ZBL-48" value="Reader" style="rounded=1;whiteSpace=wrap;html=1;labelPosition=center;verticalLabelPosition=top;align=center;verticalAlign=bottom;fillColor=none;" vertex="1" parent="1">
          <mxGeometry y="270" width="530" height="370" as="geometry" />
        </mxCell>
        <mxCell id="piUxXuk_W2rWxrnq_ZBL-49" value="Writer" style="rounded=1;whiteSpace=wrap;html=1;labelPosition=center;verticalLabelPosition=top;align=center;verticalAlign=bottom;fillColor=none;" vertex="1" parent="1">
          <mxGeometry x="550" y="270" width="380" height="380" as="geometry" />
        </mxCell>
        <mxCell id="piUxXuk_W2rWxrnq_ZBL-59" style="edgeStyle=orthogonalEdgeStyle;rounded=0;orthogonalLoop=1;jettySize=auto;html=1;exitX=0.5;exitY=1;exitDx=0;exitDy=0;entryX=1;entryY=0.5;entryDx=0;entryDy=0;" edge="1" parent="1" source="piUxXuk_W2rWxrnq_ZBL-2" target="piUxXuk_W2rWxrnq_ZBL-16">
          <mxGeometry relative="1" as="geometry" />
        </mxCell>
        <mxCell id="piUxXuk_W2rWxrnq_ZBL-60" style="edgeStyle=orthogonalEdgeStyle;rounded=0;orthogonalLoop=1;jettySize=auto;html=1;entryX=0.5;entryY=0;entryDx=0;entryDy=0;" edge="1" parent="1" source="piUxXuk_W2rWxrnq_ZBL-2" target="piUxXuk_W2rWxrnq_ZBL-19">
          <mxGeometry relative="1" as="geometry" />
        </mxCell>
        <mxCell id="piUxXuk_W2rWxrnq_ZBL-2" value="Controller" style="rounded=1;whiteSpace=wrap;html=1;labelPosition=center;verticalLabelPosition=top;align=center;verticalAlign=bottom;" vertex="1" parent="1">
          <mxGeometry x="330" y="30" width="330" height="230" as="geometry" />
        </mxCell>
        <mxCell id="piUxXuk_W2rWxrnq_ZBL-3" value="DTOs" style="rounded=0;whiteSpace=wrap;html=1;labelPosition=center;verticalLabelPosition=top;align=center;verticalAlign=bottom;" vertex="1" parent="1">
          <mxGeometry x="365" y="50" width="260" height="80" as="geometry" />
        </mxCell>
        <mxCell id="piUxXuk_W2rWxrnq_ZBL-4" value="CreateRentalInput" style="rounded=0;whiteSpace=wrap;html=1;" vertex="1" parent="1">
          <mxGeometry x="370" y="55" width="120" height="30" as="geometry" />
        </mxCell>
        <mxCell id="piUxXuk_W2rWxrnq_ZBL-6" value="Confirm&lt;br&gt;RentalInput" style="rounded=0;whiteSpace=wrap;html=1;" vertex="1" parent="1">
          <mxGeometry x="370" y="95" width="120" height="30" as="geometry" />
        </mxCell>
        <mxCell id="piUxXuk_W2rWxrnq_ZBL-9" value="PickCarInput" style="rounded=0;whiteSpace=wrap;html=1;" vertex="1" parent="1">
          <mxGeometry x="500" y="55" width="120" height="30" as="geometry" />
        </mxCell>
        <mxCell id="piUxXuk_W2rWxrnq_ZBL-10" value="RentalOutput" style="rounded=0;whiteSpace=wrap;html=1;" vertex="1" parent="1">
          <mxGeometry x="500" y="95" width="120" height="30" as="geometry" />
        </mxCell>
        <mxCell id="piUxXuk_W2rWxrnq_ZBL-11" value="RentalController&lt;br&gt;&amp;lt;GraphQL&amp;gt;" style="rounded=0;whiteSpace=wrap;html=1;" vertex="1" parent="1">
          <mxGeometry x="370" y="140" width="255" height="60" as="geometry" />
        </mxCell>
        <mxCell id="piUxXuk_W2rWxrnq_ZBL-12" value="RentalMapper" style="rounded=0;whiteSpace=wrap;html=1;" vertex="1" parent="1">
          <mxGeometry x="370" y="210" width="255" height="30" as="geometry" />
        </mxCell>
        <mxCell id="piUxXuk_W2rWxrnq_ZBL-38" value="" style="edgeStyle=orthogonalEdgeStyle;rounded=0;orthogonalLoop=1;jettySize=auto;html=1;" edge="1" parent="1" source="piUxXuk_W2rWxrnq_ZBL-13" target="piUxXuk_W2rWxrnq_ZBL-34">
          <mxGeometry relative="1" as="geometry" />
        </mxCell>
        <mxCell id="piUxXuk_W2rWxrnq_ZBL-43" value="" style="edgeStyle=orthogonalEdgeStyle;rounded=0;orthogonalLoop=1;jettySize=auto;html=1;" edge="1" parent="1" source="piUxXuk_W2rWxrnq_ZBL-13" target="piUxXuk_W2rWxrnq_ZBL-42">
          <mxGeometry relative="1" as="geometry" />
        </mxCell>
        <mxCell id="piUxXuk_W2rWxrnq_ZBL-56" style="edgeStyle=orthogonalEdgeStyle;rounded=0;orthogonalLoop=1;jettySize=auto;html=1;" edge="1" parent="1">
          <mxGeometry relative="1" as="geometry">
            <mxPoint x="278" y="523" as="sourcePoint" />
            <mxPoint x="280" y="659" as="targetPoint" />
            <Array as="points">
              <mxPoint x="278" y="592" />
              <mxPoint x="281" y="592" />
            </Array>
          </mxGeometry>
        </mxCell>
        <mxCell id="piUxXuk_W2rWxrnq_ZBL-13" value="RentalEventHandler&lt;br&gt;&amp;lt;Projector&amp;gt;" style="rounded=0;whiteSpace=wrap;html=1;" vertex="1" parent="1">
          <mxGeometry x="220" y="463" width="120" height="60" as="geometry" />
        </mxCell>
        <mxCell id="piUxXuk_W2rWxrnq_ZBL-44" style="edgeStyle=orthogonalEdgeStyle;rounded=0;orthogonalLoop=1;jettySize=auto;html=1;exitX=0.5;exitY=1;exitDx=0;exitDy=0;entryX=0.5;entryY=0;entryDx=0;entryDy=0;" edge="1" parent="1" source="piUxXuk_W2rWxrnq_ZBL-16" target="piUxXuk_W2rWxrnq_ZBL-27">
          <mxGeometry relative="1" as="geometry" />
        </mxCell>
        <mxCell id="piUxXuk_W2rWxrnq_ZBL-16" value="RentalQueryService" style="rounded=0;whiteSpace=wrap;html=1;" vertex="1" parent="1">
          <mxGeometry x="220" y="290" width="120" height="60" as="geometry" />
        </mxCell>
        <mxCell id="piUxXuk_W2rWxrnq_ZBL-46" style="edgeStyle=orthogonalEdgeStyle;rounded=0;orthogonalLoop=1;jettySize=auto;html=1;entryX=0.553;entryY=0.03;entryDx=0;entryDy=0;entryPerimeter=0;" edge="1" parent="1" source="piUxXuk_W2rWxrnq_ZBL-19" target="piUxXuk_W2rWxrnq_ZBL-28">
          <mxGeometry relative="1" as="geometry" />
        </mxCell>
        <mxCell id="piUxXuk_W2rWxrnq_ZBL-19" value="RentalCommandService" style="rounded=0;whiteSpace=wrap;html=1;" vertex="1" parent="1">
          <mxGeometry x="715" y="290" width="160" height="53" as="geometry" />
        </mxCell>
        <mxCell id="piUxXuk_W2rWxrnq_ZBL-20" value="CreateRental&lt;br&gt;Command" style="rounded=0;whiteSpace=wrap;html=1;" vertex="1" parent="1">
          <mxGeometry x="570" y="414" width="120" height="60" as="geometry" />
        </mxCell>
        <mxCell id="piUxXuk_W2rWxrnq_ZBL-21" value="ConfirmRental&lt;br&gt;Command" style="rounded=0;whiteSpace=wrap;html=1;" vertex="1" parent="1">
          <mxGeometry x="570" y="487" width="120" height="60" as="geometry" />
        </mxCell>
        <mxCell id="piUxXuk_W2rWxrnq_ZBL-22" value="PickCar&lt;br&gt;Command" style="rounded=0;whiteSpace=wrap;html=1;" vertex="1" parent="1">
          <mxGeometry x="570" y="557" width="120" height="60" as="geometry" />
        </mxCell>
        <mxCell id="piUxXuk_W2rWxrnq_ZBL-51" value="" style="edgeStyle=orthogonalEdgeStyle;rounded=0;orthogonalLoop=1;jettySize=auto;html=1;" edge="1" parent="1" source="piUxXuk_W2rWxrnq_ZBL-23" target="piUxXuk_W2rWxrnq_ZBL-50">
          <mxGeometry relative="1" as="geometry" />
        </mxCell>
        <mxCell id="piUxXuk_W2rWxrnq_ZBL-57" style="edgeStyle=orthogonalEdgeStyle;rounded=0;orthogonalLoop=1;jettySize=auto;html=1;entryX=1.002;entryY=0.65;entryDx=0;entryDy=0;entryPerimeter=0;" edge="1" parent="1" source="piUxXuk_W2rWxrnq_ZBL-23" target="piUxXuk_W2rWxrnq_ZBL-52">
          <mxGeometry relative="1" as="geometry" />
        </mxCell>
        <mxCell id="piUxXuk_W2rWxrnq_ZBL-23" value="RentalAggregate&lt;br&gt;&amp;lt;Aggregate&amp;gt;" style="rounded=0;whiteSpace=wrap;html=1;" vertex="1" parent="1">
          <mxGeometry x="726" y="461" width="120" height="60" as="geometry" />
        </mxCell>
        <mxCell id="piUxXuk_W2rWxrnq_ZBL-24" value="RentalCreatedEvent" style="rounded=0;whiteSpace=wrap;html=1;" vertex="1" parent="1">
          <mxGeometry x="275" y="680" width="120" height="60" as="geometry" />
        </mxCell>
        <mxCell id="piUxXuk_W2rWxrnq_ZBL-25" value="RentalConfirmedEvent" style="rounded=0;whiteSpace=wrap;html=1;" vertex="1" parent="1">
          <mxGeometry x="415" y="680" width="140" height="60" as="geometry" />
        </mxCell>
        <mxCell id="piUxXuk_W2rWxrnq_ZBL-26" value="CarPickedEvent" style="rounded=0;whiteSpace=wrap;html=1;" vertex="1" parent="1">
          <mxGeometry x="575" y="680" width="140" height="60" as="geometry" />
        </mxCell>
        <mxCell id="piUxXuk_W2rWxrnq_ZBL-37" style="edgeStyle=orthogonalEdgeStyle;rounded=0;orthogonalLoop=1;jettySize=auto;html=1;" edge="1" parent="1" source="piUxXuk_W2rWxrnq_ZBL-31" target="piUxXuk_W2rWxrnq_ZBL-36">
          <mxGeometry relative="1" as="geometry" />
        </mxCell>
        <mxCell id="piUxXuk_W2rWxrnq_ZBL-31" value="Persistence" style="rounded=1;whiteSpace=wrap;html=1;labelPosition=center;verticalLabelPosition=top;align=center;verticalAlign=bottom;" vertex="1" parent="1">
          <mxGeometry x="50" y="447" width="140" height="170" as="geometry" />
        </mxCell>
        <mxCell id="piUxXuk_W2rWxrnq_ZBL-45" style="edgeStyle=orthogonalEdgeStyle;rounded=0;orthogonalLoop=1;jettySize=auto;html=1;entryX=0.5;entryY=0;entryDx=0;entryDy=0;" edge="1" parent="1" source="piUxXuk_W2rWxrnq_ZBL-27" target="piUxXuk_W2rWxrnq_ZBL-13">
          <mxGeometry relative="1" as="geometry" />
        </mxCell>
        <mxCell id="piUxXuk_W2rWxrnq_ZBL-27" value="AxonQueryGateway" style="rounded=0;whiteSpace=wrap;html=1;" vertex="1" parent="1">
          <mxGeometry x="220" y="380" width="120" height="60" as="geometry" />
        </mxCell>
        <mxCell id="piUxXuk_W2rWxrnq_ZBL-47" style="edgeStyle=orthogonalEdgeStyle;rounded=0;orthogonalLoop=1;jettySize=auto;html=1;entryX=0.5;entryY=0;entryDx=0;entryDy=0;" edge="1" parent="1" source="piUxXuk_W2rWxrnq_ZBL-28" target="piUxXuk_W2rWxrnq_ZBL-23">
          <mxGeometry relative="1" as="geometry" />
        </mxCell>
        <mxCell id="piUxXuk_W2rWxrnq_ZBL-28" value="AxonCommandGateway" style="rounded=0;whiteSpace=wrap;html=1;" vertex="1" parent="1">
          <mxGeometry x="701" y="377" width="170" height="50" as="geometry" />
        </mxCell>
        <mxCell id="piUxXuk_W2rWxrnq_ZBL-29" value="AxonEventStore" style="rounded=0;whiteSpace=wrap;html=1;" vertex="1" parent="1">
          <mxGeometry x="415" y="780" width="170" height="50" as="geometry" />
        </mxCell>
        <mxCell id="piUxXuk_W2rWxrnq_ZBL-34" value="Rental" style="rounded=0;whiteSpace=wrap;html=1;" vertex="1" parent="1">
          <mxGeometry x="60" y="463" width="120" height="60" as="geometry" />
        </mxCell>
        <mxCell id="piUxXuk_W2rWxrnq_ZBL-35" value="RentalRepository" style="rounded=0;whiteSpace=wrap;html=1;" vertex="1" parent="1">
          <mxGeometry x="60" y="537" width="120" height="60" as="geometry" />
        </mxCell>
        <mxCell id="piUxXuk_W2rWxrnq_ZBL-36" value="" style="shape=cylinder3;whiteSpace=wrap;html=1;boundedLbl=1;backgroundOutline=1;size=15;" vertex="1" parent="1">
          <mxGeometry x="90" y="670" width="60" height="80" as="geometry" />
        </mxCell>
        <mxCell id="piUxXuk_W2rWxrnq_ZBL-39" value="Queries" style="rounded=1;whiteSpace=wrap;html=1;labelPosition=center;verticalLabelPosition=top;align=center;verticalAlign=bottom;" vertex="1" parent="1">
          <mxGeometry x="360" y="450" width="140" height="170" as="geometry" />
        </mxCell>
        <mxCell id="piUxXuk_W2rWxrnq_ZBL-41" value="GetRentalInfoQuery" style="rounded=0;whiteSpace=wrap;html=1;" vertex="1" parent="1">
          <mxGeometry x="370" y="461" width="120" height="60" as="geometry" />
        </mxCell>
        <mxCell id="piUxXuk_W2rWxrnq_ZBL-42" value="GetRentalInfo&lt;br&gt;QueryResponse" style="rounded=0;whiteSpace=wrap;html=1;" vertex="1" parent="1">
          <mxGeometry x="370" y="531" width="120" height="60" as="geometry" />
        </mxCell>
        <mxCell id="piUxXuk_W2rWxrnq_ZBL-50" value="Commands" style="rounded=1;whiteSpace=wrap;html=1;fillColor=none;labelPosition=center;verticalLabelPosition=top;align=center;verticalAlign=bottom;" vertex="1" parent="1">
          <mxGeometry x="565.5" y="403.5" width="129" height="227" as="geometry" />
        </mxCell>
        <mxCell id="piUxXuk_W2rWxrnq_ZBL-53" value="" style="edgeStyle=orthogonalEdgeStyle;rounded=0;orthogonalLoop=1;jettySize=auto;html=1;" edge="1" parent="1" source="piUxXuk_W2rWxrnq_ZBL-52" target="piUxXuk_W2rWxrnq_ZBL-29">
          <mxGeometry relative="1" as="geometry" />
        </mxCell>
        <mxCell id="piUxXuk_W2rWxrnq_ZBL-52" value="Events" style="rounded=1;whiteSpace=wrap;html=1;fillColor=none;labelPosition=center;verticalLabelPosition=top;align=center;verticalAlign=bottom;" vertex="1" parent="1">
          <mxGeometry x="240" y="660" width="520" height="90" as="geometry" />
        </mxCell>
      </root>
    </mxGraphModel>
  </diagram>
</mxfile>
